<svg id="Layer_1" data-name="Layer 1" xmlns="http://www.w3.org/2000/svg" viewBox="0 0 103.93 122.88">
    <title>letter-stamp</title>
    <path
        d="M4.2,0h9.18a2,2,0,0,1,2,2A3.86,3.86,0,0,0,22,4.72L22,4.64a3.85,3.85,0,0,0,1-2.65,2,2,0,0,1,2-2H35.55a2,2,0,0,1,2,2,3.86,3.86,0,0,0,6.59,2.74l.08-.08a3.85,3.85,0,0,0,1-2.65,2,2,0,0,1,2-2H57.72a2,2,0,0,1,2,2,3.86,3.86,0,0,0,6.59,2.74l.08-.08a3.85,3.85,0,0,0,1-2.65,2,2,0,0,1,2-2H79.89a2,2,0,0,1,2,2,3.86,3.86,0,0,0,6.59,2.74l.08-.08a3.85,3.85,0,0,0,1-2.65,2,2,0,0,1,2-2h8.15a4.18,4.18,0,0,1,3,1.23h0a4.2,4.2,0,0,1,1.23,3v7.1a2,2,0,0,1-1.84,2,3.83,3.83,0,0,0-2.34,1.27,3.86,3.86,0,0,0,0,5.12,3.89,3.89,0,0,0,2.43,1.28,2,2,0,0,1,1.75,2V33.46a2,2,0,0,1-1.84,2,3.83,3.83,0,0,0-2.34,1.27,3.86,3.86,0,0,0,0,5.12,3.84,3.84,0,0,0,2.43,1.28,2,2,0,0,1,1.75,2V55.64a2,2,0,0,1-1.84,2,3.83,3.83,0,0,0-2.34,1.27,3.86,3.86,0,0,0,0,5.12,3.89,3.89,0,0,0,2.43,1.28,2,2,0,0,1,1.75,2V77.8a2,2,0,0,1-1.84,2,3.83,3.83,0,0,0-2.34,1.27,3.86,3.86,0,0,0,0,5.12,3.89,3.89,0,0,0,2.43,1.28,2,2,0,0,1,1.75,2V100a2,2,0,0,1-1.84,2,3.83,3.83,0,0,0-2.34,1.27,3.86,3.86,0,0,0,0,5.12,3.89,3.89,0,0,0,2.43,1.28,2,2,0,0,1,1.75,2v7.1a4.2,4.2,0,0,1-4.2,4.2H91.57a2,2,0,0,1-2-2v0a3.88,3.88,0,0,0-6.53-2.49A3.91,3.91,0,0,0,81.87,121a2,2,0,0,1-2,1.89H69.4a2,2,0,0,1-2-2v0a3.88,3.88,0,0,0-6.53-2.49A3.91,3.91,0,0,0,59.7,121a2,2,0,0,1-2,1.89H47.23a2,2,0,0,1-2-2v0a3.88,3.88,0,0,0-6.53-2.49A3.91,3.91,0,0,0,37.53,121a2,2,0,0,1-2,1.89H25.06a2,2,0,0,1-2-2v0a3.88,3.88,0,0,0-6.53-2.49A3.91,3.91,0,0,0,15.36,121a2,2,0,0,1-2,1.89H4.2a4.2,4.2,0,0,1-4.2-4.2v-7.06a2,2,0,0,1,2-2,3.84,3.84,0,0,0,2.73-1.12h0A3.86,3.86,0,0,0,2,101.92a2,2,0,0,1-2-2V89.45a2,2,0,0,1,2-2,3.84,3.84,0,0,0,2.73-1.12h0A3.86,3.86,0,0,0,2,79.75a2,2,0,0,1-2-2V67.28a2,2,0,0,1,2-2,3.84,3.84,0,0,0,2.73-1.12h0A3.86,3.86,0,0,0,2,57.58a2,2,0,0,1-2-2V45.11a2,2,0,0,1,2-2,3.86,3.86,0,1,0,0-7.72,2,2,0,0,1-2-2V22.94a2,2,0,0,1,2-2,3.86,3.86,0,1,0,0-7.72,2,2,0,0,1-2-2v-7a4.18,4.18,0,0,1,1.23-3h0A4.2,4.2,0,0,1,4.2,0ZM61.62,27.61H75.57V42.85H61.62V27.61ZM30.16,91.29a2.55,2.55,0,1,1,0-5.1H51.58a2.55,2.55,0,1,1,0,5.1Zm0-12.45a2.56,2.56,0,0,1,0-5.11H60.09a2.56,2.56,0,0,1,0,5.11Zm0-12.46a2.55,2.55,0,0,1,0-5.1H70.42a2.55,2.55,0,0,1,0,5.1Zm-11-49H84.82a2,2,0,0,1,2,2v84.08a2,2,0,0,1-2,2H19.11a2,2,0,0,1-2-2V19.4a2,2,0,0,1,2-2Zm63.73,4H21.1V101.5H82.84V21.38ZM11.65,4H4.2A.21.21,0,0,0,4,4H4A.21.21,0,0,0,4,4.2V9.52a8,8,0,0,1,3.55,2A7.82,7.82,0,0,1,4,24.67v7a8,8,0,0,1,3.55,2,7.81,7.81,0,0,1,2.29,5.54A7.77,7.77,0,0,1,7.52,44.8a7.77,7.77,0,0,1-3.55,2v7a8,8,0,0,1,3.55,2A7.82,7.82,0,0,1,4,69v7a8,8,0,0,1,3.55,2,7.81,7.81,0,0,1,2.29,5.54,7.77,7.77,0,0,1-2.29,5.53,7.77,7.77,0,0,1-3.55,2v7a8,8,0,0,1,3.55,2,7.81,7.81,0,0,1,2.29,5.54,7.77,7.77,0,0,1-2.29,5.53,7.77,7.77,0,0,1-3.55,2v5.33a.24.24,0,0,0,.23.23h7.53a7.92,7.92,0,0,1,2.09-3.4,7.82,7.82,0,0,1,12.89,3.4H33.9a7.92,7.92,0,0,1,2.09-3.4,7.82,7.82,0,0,1,12.89,3.4h7.19a7.92,7.92,0,0,1,2.09-3.4,7.82,7.82,0,0,1,12.89,3.4h7.19a7.92,7.92,0,0,1,2.09-3.4,7.82,7.82,0,0,1,12.89,3.4h6.51a.26.26,0,0,0,.17-.07.24.24,0,0,0,.07-.16v-5.54a7.83,7.83,0,0,1,0-14.72V91a7.83,7.83,0,0,1,0-14.72V68.8a7.83,7.83,0,0,1,0-14.72V46.63a7.83,7.83,0,0,1,0-14.72V24.46a7.83,7.83,0,0,1,0-14.72V4.2A.22.22,0,0,0,99.9,4h0A.24.24,0,0,0,99.73,4H93.31A7.89,7.89,0,0,1,91.38,7.4l-.11.12a7.82,7.82,0,0,1-5.54,2.3,7.77,7.77,0,0,1-5.53-2.3h0a7.77,7.77,0,0,1-2-3.55h-7A7.89,7.89,0,0,1,69.21,7.4l-.11.12a7.82,7.82,0,0,1-5.54,2.3A7.77,7.77,0,0,1,58,7.52h0A7.77,7.77,0,0,1,56,4H49A7.89,7.89,0,0,1,47,7.4l-.11.12a7.82,7.82,0,0,1-5.54,2.3,7.77,7.77,0,0,1-5.53-2.3h0a7.77,7.77,0,0,1-2-3.55h-7A7.89,7.89,0,0,1,24.87,7.4l-.11.12a7.82,7.82,0,0,1-5.54,2.3,7.77,7.77,0,0,1-5.53-2.3h0a7.77,7.77,0,0,1-2-3.55Z" />
</svg>