<?xml version="1.0" encoding="utf-8"?><svg version="1.1" id="Layer_1" xmlns="http://www.w3.org/2000/svg" xmlns:xlink="http://www.w3.org/1999/xlink" x="0px" y="0px" viewBox="0 0 98.59 122.88" style="enable-background:new 0 0 98.59 122.88" xml:space="preserve"><style type="text/css"><![CDATA[
	.st0{fill-rule:evenodd;clip-rule:evenodd;}
]]></style><g><path class="st0" d="M12.71,0h43.01c3.51,0,6.67,1.43,8.98,3.73c2.3,2.3,3.73,5.48,3.73,8.98v10.62h-3.65v-7.35H3.66v89.07l0,0 h61.13v-9.83l3.65-2.98v17.93c0,3.51-1.43,6.67-3.73,8.98c-2.3,2.3-5.48,3.73-8.98,3.73H12.71c-3.51,0-6.67-1.43-8.98-3.73 c-2.3-2.3-3.73-5.48-3.73-8.98V12.71c0-3.51,1.43-6.67,3.73-8.98C6.03,1.43,9.22,0,12.71,0L12.71,0L12.71,0L12.71,0z M49.88,47.44 c2.65,0,4.8,2.15,4.8,4.8c0,2.65-2.15,4.8-4.8,4.8c-2.65,0-4.8-2.15-4.8-4.8C45.08,49.59,47.23,47.44,49.88,47.44L49.88,47.44z M82.97,47.44c2.65,0,4.8,2.15,4.8,4.8c0,2.65-2.15,4.8-4.8,4.8c-2.65,0-4.8-2.15-4.8-4.8C78.17,49.59,80.32,47.44,82.97,47.44 L82.97,47.44z M66.43,47.44c2.65,0,4.8,2.15,4.8,4.8c0,2.65-2.15,4.8-4.8,4.8s-4.8-2.15-4.8-4.8 C61.63,49.59,63.78,47.44,66.43,47.44L66.43,47.44z M85.35,30.06c7.36,0,13.24,5.88,13.24,13.24v19.96 c0,7.36-5.88,13.24-13.24,13.24H74.57C69.03,83.51,61.83,87.73,53.31,90c-0.67,0.18-1.39-0.03-1.88-0.56 c-0.69-0.77-0.62-1.95,0.16-2.64c1.08-0.95,2-1.93,2.74-2.9c1.65-2.19,2.62-4.84,3.44-7.44H47.3c-7.35-0.01-13.23-5.89-13.23-13.24 V43.27c0-7.35,5.88-13.24,13.23-13.24C61.27,30.03,71.38,30.06,85.35,30.06L85.35,30.06L85.35,30.06z M34.22,109.04 c2.87,0,5.21,2.34,5.21,5.21c0,2.87-2.34,5.21-5.21,5.21s-5.21-2.34-5.21-5.21C29.01,111.38,31.34,109.04,34.22,109.04 L34.22,109.04L34.22,109.04L34.22,109.04z"/></g></svg>