<?xml version="1.0" encoding="utf-8"?><svg version="1.1" id="Layer_1" xmlns="http://www.w3.org/2000/svg" xmlns:xlink="http://www.w3.org/1999/xlink" x="0px" y="0px" viewBox="0 0 100.51 122.88" style="enable-background:new 0 0 100.51 122.88" xml:space="preserve"><style type="text/css"><![CDATA[
	.st0{fill-rule:evenodd;clip-rule:evenodd;}
]]></style><g><path class="st0" d="M12.71,0h43.01c3.51,0,6.67,1.43,8.98,3.73c2.3,2.3,3.73,5.48,3.73,8.98v10.62h-3.65v-7.35H3.66v89.07l0,0 h61.13v-9.83l3.65-2.98v17.93c0,3.51-1.43,6.67-3.73,8.98c-2.3,2.3-5.48,3.73-8.98,3.73H12.71c-3.51,0-6.67-1.43-8.98-3.73 c-2.3-2.3-3.73-5.48-3.73-8.98V12.71c0-3.51,1.43-6.67,3.73-8.98C6.03,1.43,9.22,0,12.71,0L12.71,0L12.71,0L12.71,0z M87.27,30.06 c7.35,0,13.24,5.88,13.24,13.24v19.96c0,7.36-5.88,13.24-13.24,13.24h-12.7C69.03,83.51,61.83,87.73,53.31,90 c-0.67,0.18-1.39-0.03-1.88-0.56c-0.69-0.77-0.62-1.95,0.16-2.64c1.08-0.95,2-1.93,2.74-2.9c1.65-2.19,2.62-4.84,3.44-7.44H45.38 c-7.35-0.01-13.23-5.89-13.23-13.24V43.27c0-7.35,5.88-13.24,13.23-13.24C59.35,30.03,73.3,30.06,87.27,30.06L87.27,30.06 L87.27,30.06z M40.66,56.45l4.6-0.33c0.1,0.86,0.31,1.51,0.61,1.96c0.5,0.72,1.21,1.09,2.14,1.09c0.69,0,1.22-0.18,1.6-0.56 c0.37-0.37,0.56-0.81,0.56-1.3c0-0.47-0.18-0.88-0.53-1.25c-0.36-0.37-1.18-0.71-2.48-1.05c-2.13-0.55-3.63-1.28-4.54-2.19 c-0.91-0.91-1.37-2.06-1.37-3.48c0-0.92,0.23-1.8,0.7-2.62c0.47-0.83,1.17-1.47,2.1-1.94s2.22-0.71,3.86-0.71 c2,0,3.53,0.43,4.58,1.29c1.05,0.86,1.67,2.22,1.88,4.09l-4.56,0.31c-0.12-0.82-0.38-1.41-0.76-1.79 c-0.39-0.37-0.93-0.56-1.61-0.56c-0.56,0-0.99,0.14-1.27,0.41c-0.28,0.27-0.43,0.61-0.43,1c0,0.28,0.12,0.54,0.35,0.77 c0.23,0.23,0.76,0.45,1.62,0.66c2.11,0.52,3.63,1.06,4.55,1.6s1.58,1.2,2,2c0.42,0.8,0.62,1.69,0.62,2.67 c0,1.15-0.27,2.22-0.83,3.2c-0.56,0.97-1.33,1.71-2.33,2.22c-1,0.5-2.25,0.76-3.77,0.76c-2.67,0-4.51-0.59-5.54-1.77 C41.38,59.76,40.8,58.26,40.66,56.45L40.66,56.45L40.66,56.45z M77.78,56.45l4.6-0.33c0.1,0.86,0.31,1.51,0.61,1.96 c0.5,0.72,1.21,1.09,2.14,1.09c0.69,0,1.22-0.18,1.6-0.56c0.37-0.37,0.56-0.81,0.56-1.3c0-0.47-0.18-0.88-0.53-1.25 c-0.35-0.37-1.18-0.72-2.48-1.05c-2.13-0.55-3.63-1.28-4.54-2.19c-0.91-0.91-1.37-2.06-1.37-3.48c0-0.92,0.23-1.8,0.7-2.62 c0.47-0.82,1.17-1.47,2.1-1.94s2.22-0.71,3.86-0.71c2,0,3.53,0.43,4.58,1.29c1.05,0.86,1.67,2.22,1.88,4.09l-4.56,0.31 c-0.12-0.82-0.38-1.41-0.76-1.79c-0.39-0.37-0.93-0.56-1.61-0.56c-0.56,0-0.99,0.14-1.27,0.41c-0.28,0.27-0.43,0.61-0.43,1 c0,0.28,0.12,0.54,0.34,0.77c0.23,0.23,0.77,0.46,1.62,0.66c2.11,0.52,3.63,1.06,4.54,1.6c0.91,0.53,1.59,1.2,2,2 c0.41,0.79,0.62,1.69,0.62,2.67c0,1.15-0.28,2.23-0.83,3.2c-0.56,0.97-1.33,1.72-2.33,2.22s-2.25,0.76-3.77,0.76 c-2.66,0-4.51-0.59-5.54-1.77C78.5,59.76,77.92,58.26,77.78,56.45L77.78,56.45L77.78,56.45z M57.72,44.38h6.39l2.44,10.97 l2.44-10.97h6.36v18.03h-3.96V48.66l-3.06,13.75h-3.59l-3.05-13.75v13.75h-3.96V44.38L57.72,44.38L57.72,44.38z M34.22,109.04 c2.87,0,5.21,2.34,5.21,5.21c0,2.87-2.34,5.21-5.21,5.21s-5.21-2.34-5.21-5.21C29.01,111.38,31.34,109.04,34.22,109.04 L34.22,109.04L34.22,109.04L34.22,109.04z"/></g></svg>